<svg width="31" height="25" viewBox="0 0 31 25" fill="none" xmlns="http://www.w3.org/2000/svg">
<path d="M12.416 2.28701L9.36854 4.58867V3.68462V2.77569H7.05448H4.74043V5.43896V8.10224L2.53318 9.78816C1.32275 10.7166 0.325924 11.4887 0.325924 11.4985C0.325924 11.5132 0.973859 11.523 1.77132 11.523H3.21671L9.11933 7.04181C12.3732 4.5789 15.143 2.4776 15.2854 2.37009L15.5346 2.17462L21.5867 6.80725C24.9119 9.35813 27.6531 11.4594 27.6745 11.4839C27.6959 11.5083 28.3651 11.5181 29.1626 11.5132L30.608 11.4985L23.1105 5.7566C18.9879 2.59977 15.5773 0.00979233 15.5346 1.90735e-05C15.4919 -0.00486851 14.0892 1.02135 12.416 2.28701Z" fill="black"/>
<path d="M9.94527 8.30748L4.45562 12.471V13.9761C4.45562 14.802 4.47698 15.4812 4.51258 15.4812C4.54106 15.4812 5.1534 15.3688 5.87965 15.2369C6.60591 15.1 7.50305 14.9534 7.8733 14.9143C8.96269 14.7873 11.0987 14.8166 12.238 14.973L12.4302 15.0023V14.0934V13.1844H15.5275H18.6248V14.7677V16.351L19.4293 16.6198C20.8391 17.0938 21.7505 17.8122 21.8787 18.5501L21.9214 18.8091L22.1421 18.7749C23.0749 18.638 24.1358 18.3106 25.3747 17.7829L26.3145 17.3821V14.8899V12.4026L20.9317 8.27327C17.9697 6.00094 15.5204 4.14398 15.4919 4.14398C15.4634 4.14398 12.9642 6.0156 9.94527 8.30748Z" fill="black"/>
<path d="M8.69211 16.1458C7.80921 16.2338 7.29656 16.3169 5.34563 16.6834C3.11702 17.1036 1.21594 17.475 0.596483 17.6118L0.254715 17.69V20.9348C0.254715 22.7185 0.276075 24.1796 0.297436 24.1796C0.318796 24.1796 0.774487 24.0819 1.29426 23.9597C2.76101 23.6176 3.66528 23.4808 4.45561 23.4759C5.20323 23.4759 5.28867 23.4857 8.68499 24.0135C13.8186 24.8149 15.8408 25.0348 17.7703 24.9957C19.2513 24.9664 19.764 24.8686 21.4016 24.3067C23.7726 23.4857 27.6887 21.5408 29.896 20.0796C30.5012 19.6838 30.6721 19.4639 30.6792 19.1023C30.6863 18.4768 29.9387 18.0614 28.9561 18.1445C28.1373 18.208 27.589 18.3693 26.2647 18.9361C23.2244 20.2262 19.7569 20.6318 16.4887 20.0699C15.6912 19.933 14.4808 19.5714 14.0678 19.3417L13.8898 19.244H14.2458C14.4452 19.244 15.2569 19.3124 16.0615 19.3906C17.5994 19.547 18.8811 19.5861 19.3795 19.4932C19.9206 19.3955 20.1485 19.0583 19.9776 18.6283C19.7996 18.1934 19.0733 17.8659 17.0583 17.3235C13.7546 16.4341 12.2166 16.1751 10.0449 16.1409C9.41837 16.1312 8.81316 16.136 8.69211 16.1458Z" fill="black"/>
</svg>
