<svg width="31" height="25" viewBox="0 0 31 25" fill="none" xmlns="http://www.w3.org/2000/svg">
<g clip-path="url(#clip0_93_60)">
<path d="M9.0299 5.475C8.53973 5.52777 7.95828 5.73333 7.56276 5.99166C7.18414 6.23889 7.03202 6.41389 5.87589 7.93889C5.08823 8.975 4.71299 9.45 4.66566 9.45833C4.62848 9.46389 4.1383 9.52777 3.58052 9.59722C2.98555 9.66944 2.46495 9.75 2.32973 9.78889C1.35615 10.0583 0.676663 10.6417 0.365657 11.4639L0.274383 11.7083L0.260861 13.6139C0.250719 15.725 0.250719 15.7306 0.463691 16.0667C0.609053 16.2944 0.960626 16.5806 1.22769 16.6917C1.5894 16.8417 1.7449 16.8611 2.57313 16.8611H3.3236L3.37769 17.0611C3.67855 18.1639 4.83469 19.075 6.20717 19.2917C6.60269 19.3528 7.25175 19.35 7.64389 19.2806C8.99271 19.0472 10.0846 18.1722 10.4125 17.0611L10.47 16.8611H15.3447H20.216L20.2904 17.0944C20.6217 18.1472 21.602 18.9611 22.8934 19.2556C23.1165 19.3083 23.2517 19.3167 23.7824 19.3167C24.3335 19.3194 24.4416 19.3111 24.6918 19.2556C25.4592 19.0833 26.1319 18.7278 26.6119 18.2361C26.8891 17.9528 27.1968 17.45 27.2982 17.1111L27.3725 16.8611H28.123C28.958 16.8611 29.127 16.8389 29.4718 16.6889C29.8741 16.5111 30.1953 16.2 30.3474 15.8417L30.4251 15.6528V13.9306C30.4251 12.3667 30.4184 12.1917 30.3643 12.0278C30.0938 11.2167 29.4651 10.6139 28.5659 10.3083C28.2177 10.1889 28.3292 10.2056 24.0529 9.61111C23.5052 9.53611 23.0218 9.46389 22.9813 9.45278C22.9373 9.43889 22.3457 8.81666 21.5479 7.94444C20.8008 7.12778 20.1213 6.39166 20.0368 6.30833C19.6785 5.96111 19.0599 5.65 18.475 5.52222L18.1877 5.46111L13.7254 5.45555C11.2475 5.45278 9.15836 5.46111 9.0299 5.475ZM12.931 7.93055V9.41666H9.5674C7.71826 9.41666 6.20379 9.41111 6.20379 9.40555C6.20379 9.39722 6.59255 8.88333 7.06582 8.25833C8.03265 6.98333 8.20844 6.79722 8.60396 6.62778C9.00624 6.45278 9.05694 6.45 11.0988 6.44722L12.931 6.44444V7.93055ZM18.2824 6.50833C18.5528 6.58333 18.8334 6.72222 19.0024 6.85833C19.1376 6.96666 21.3485 9.36666 21.3485 9.40277C21.3485 9.41111 19.7292 9.41666 17.7482 9.41666H14.148V7.92777V6.44166L16.1357 6.45278C17.8767 6.46111 18.1404 6.46666 18.2824 6.50833ZM25.2192 10.7917L27.9574 11.1639L28.2278 11.275C28.6504 11.45 28.9614 11.7333 29.1304 12.0972C29.2082 12.2611 29.2082 12.2778 29.2183 13.8722C29.2284 15.4639 29.2284 15.4778 29.1541 15.6C29.1067 15.6833 29.0357 15.7444 28.9411 15.7917C28.7991 15.8583 28.7822 15.8611 28.0824 15.8611H27.3658L27.3455 15.7833C27.1258 14.975 26.5714 14.3083 25.7567 13.8694C25.4186 13.6889 25.0907 13.5722 24.6647 13.4806C24.3943 13.4222 24.2591 13.4083 23.85 13.4056C23.3058 13.4028 23.0455 13.4361 22.5993 13.5611C22.0651 13.7139 21.5919 13.9667 21.1862 14.3167C20.7603 14.6861 20.4493 15.1417 20.3005 15.6167L20.2228 15.8611H15.3447H10.4632L10.443 15.7833C10.1319 14.6389 9.12117 13.7639 7.78249 13.4861C6.55537 13.2306 5.2843 13.5139 4.37156 14.2444C3.87462 14.6417 3.49939 15.1889 3.36079 15.725L3.3236 15.8639L2.57651 15.8556C1.84632 15.8472 1.82266 15.8444 1.7111 15.7806C1.65025 15.7444 1.56912 15.6639 1.53531 15.6C1.47784 15.4917 1.47108 15.3833 1.47108 13.7083C1.47108 11.7472 1.47108 11.7639 1.68405 11.4361C1.88689 11.1222 2.21479 10.8806 2.61369 10.7528C2.71511 10.7194 3.09373 10.6611 3.52643 10.6111C3.92871 10.5639 4.44931 10.5028 4.68257 10.4722C5.08485 10.425 5.50403 10.4222 13.793 10.4194L22.4809 10.4167L25.2192 10.7917ZM7.53233 14.4556C8.35718 14.6389 9.013 15.1917 9.23611 15.8889C9.31048 16.1306 9.31048 16.6194 9.23273 16.8611C8.98257 17.6417 8.16449 18.2306 7.20104 18.3306C6.71087 18.3806 6.25112 18.3167 5.79813 18.1333C5.4229 17.9806 4.96315 17.6139 4.77722 17.3194C4.28705 16.5361 4.42227 15.6556 5.13555 15.0083C5.43304 14.7389 5.99758 14.4833 6.44719 14.4167C6.69397 14.3833 7.2957 14.4028 7.53233 14.4556ZM24.4416 14.4583C25.7736 14.7556 26.5274 15.9472 26.0677 17.0306C25.946 17.3194 25.7905 17.5167 25.4896 17.7667C24.9555 18.2083 24.232 18.4139 23.5019 18.3333C22.917 18.2667 22.5147 18.1 22.0888 17.7528C21.8555 17.5611 21.771 17.4667 21.6595 17.2778C21.46 16.9444 21.4026 16.7389 21.3992 16.375C21.3992 16.05 21.4431 15.8639 21.575 15.6C21.8792 15 22.5249 14.5639 23.3092 14.4278C23.583 14.3806 24.1611 14.3972 24.4416 14.4583Z" fill="black"/>
</g>
<defs>
<clipPath id="clip0_93_60">
<rect width="30.4245" height="25" fill="white" transform="translate(0.254715)"/>
</clipPath>
</defs>
</svg>
