<svg width="31" height="25" viewBox="0 0 31 25" fill="none" xmlns="http://www.w3.org/2000/svg">
<g clip-path="url(#clip0_93_48)">
<path d="M7.1239 1.5C5.92044 2.33333 4.79812 3.13333 4.6629 3.27778L4.39246 3.55555L5.04151 4.3C5.39308 4.72222 6.02862 5.46666 6.4478 5.96666C6.86698 6.46666 7.29969 6.91111 7.39434 6.94444C7.489 6.96666 7.86761 6.87777 8.23271 6.72222C8.5978 6.56666 8.93585 6.44444 8.97642 6.44444C9.01698 6.44444 9.04403 8.05555 9.04403 10.0333C9.04403 12.6778 9.08459 13.6555 9.20629 13.7555C9.38208 13.9 13.1412 13.9555 13.5604 13.8222C13.8443 13.7333 13.8443 13.1555 13.5604 13.0667C13.4387 13.0333 12.5868 13 11.6673 13H9.99057V6.94444V0.888888H11.0723C12.0053 0.888888 12.1541 0.911111 12.1541 1.07778C12.1541 1.44444 12.9384 2.4 13.4657 2.7C15.156 3.66666 17.3871 3.26667 18.3877 1.83333C18.6041 1.53333 18.7799 1.18889 18.7799 1.07778C18.7799 0.911111 18.9286 0.888888 19.8616 0.888888H20.9434V4.38889C20.9434 7.62222 20.9569 7.88888 21.1868 7.98888C21.6736 8.2 21.8899 7.94444 21.8899 7.16666C21.8899 6.76666 21.917 6.44444 21.9575 6.44444C21.9981 6.44444 22.3226 6.55555 22.6742 6.7C23.0258 6.84444 23.4044 6.94444 23.5126 6.92222C23.6208 6.9 24.067 6.46666 24.4862 5.96666C24.9053 5.46666 25.5409 4.72222 25.8924 4.3L26.5415 3.55555L26.2711 3.27778C26.1358 3.13333 25.0135 2.33333 23.8101 1.5L21.5924 0H15.467H9.34151L7.1239 1.5ZM17.6981 1.03333C17.6981 1.11111 17.5494 1.35556 17.3736 1.56667C16.5082 2.61111 14.4258 2.61111 13.5604 1.56667C13.006 0.888888 12.9925 0.888888 15.467 0.888888C17.1843 0.888888 17.6981 0.922222 17.6981 1.03333ZM9.04403 3.44444V5.44444L8.39497 5.71111L7.74591 5.97777L6.77233 4.83333C6.23145 4.21111 5.79874 3.65555 5.81227 3.6C5.81227 3.48889 8.78711 1.45555 8.94937 1.44444C9.00346 1.44444 9.04403 2.34444 9.04403 3.44444ZM23.6343 2.5C24.4456 3.04444 25.1217 3.54444 25.1217 3.6C25.1352 3.65555 24.7025 4.21111 24.1616 4.83333L23.188 5.97777L22.539 5.71111L21.8899 5.44444V3.43333C21.8899 2.23333 21.944 1.44444 22.0116 1.46667C22.0792 1.47778 22.8094 1.94444 23.6343 2.5Z" fill="black"/>
<path d="M14.8314 8.67778C14.6016 8.77778 14.5881 9.28889 14.5881 16.7556C14.5881 22.8111 14.6286 24.7667 14.7503 24.8667C14.9802 25.0556 19.3748 25.0556 19.5642 24.8667C19.6318 24.7889 19.8481 22.4 20.0509 19.5111C20.2403 16.6444 20.4296 14.2667 20.4701 14.2444C20.5107 14.2111 20.5377 14.4111 20.5377 14.6778C20.5377 16.2889 21.2274 24.7111 21.3626 24.8444C21.5654 25.0556 25.933 25.0778 26.1899 24.8667C26.3116 24.7667 26.3522 22.8111 26.3522 16.7556C26.3522 8.98889 26.3522 8.77778 26.0953 8.66667C25.7302 8.51111 15.156 8.52222 14.8314 8.67778ZM22.566 9.94444V10.4444H20.4701H18.3742V9.94444V9.44444H20.4701H22.566V9.94444ZM25.2704 17.7222V24.1111H23.7154H22.1604V23.6889C22.1604 23.4667 22.0116 21.1333 21.8223 18.5C21.633 15.8667 21.4843 13.6111 21.4843 13.4778C21.4843 13.1 21.1192 12.8889 20.4836 12.8889C19.3884 12.8889 19.4695 12.5333 19.0503 18.6222C18.8475 21.6111 18.6582 24.0667 18.6582 24.0778C18.6447 24.1 17.9415 24.1111 17.0896 24.1111H15.5346V17.7222V11.3333H20.4025H25.2704V17.7222Z" fill="black"/>
</g>
<defs>
<clipPath id="clip0_93_48">
<rect width="30.4245" height="25" fill="white" transform="translate(0.254715)"/>
</clipPath>
</defs>
</svg>
