<svg width="27" height="27" viewBox="0 0 27 27" fill="none" xmlns="http://www.w3.org/2000/svg">
<path d="M0.754102 4.19766C0.479883 4.29786 0.131836 4.667 0.0580078 4.93595C0.0158203 5.07833 0 7.29845 0 12.0287V18.9106L0.137109 19.1848C0.232031 19.3693 0.35332 19.517 0.516797 19.633L0.764648 19.8018L1.91953 19.8281L3.07441 19.8545L3.16934 20.1973C3.34863 20.8248 3.62285 21.2889 4.11328 21.7846C4.4877 22.1643 4.6459 22.275 5.0625 22.4807C5.84824 22.8656 6.53906 22.9658 7.34063 22.8129C8.76445 22.5387 9.8666 21.484 10.2305 20.0496L10.2885 19.8281L14.4598 19.8387L18.6311 19.8545L18.6996 20.1445C18.7998 20.5453 19.1479 21.2256 19.4168 21.5525C19.8861 22.1168 20.5928 22.5703 21.2836 22.7549C22.1484 22.9869 22.9922 22.892 23.8359 22.4807C24.7482 22.0377 25.4654 21.1676 25.7344 20.192C25.824 19.8598 25.824 19.8545 26.0561 19.8123C26.3988 19.7438 26.7047 19.5065 26.8629 19.1848L27 18.9106V15.8678C27 13.8586 26.9789 12.7723 26.942 12.6721C26.8734 12.4822 22.2855 7.8838 22.0641 7.77833C21.927 7.71505 21.6 7.69923 20.2078 7.69923H18.515L18.4992 6.33868C18.4834 5.13634 18.4729 4.96231 18.3832 4.79884C18.2461 4.54044 18.0932 4.38223 17.8506 4.25567L17.6396 4.13966L9.30762 4.12911C2.05137 4.12384 0.949219 4.12911 0.754102 4.19766ZM17.2441 11.9707V18.5625H13.7479H10.2463L10.1883 18.2988C9.9668 17.3443 9.22852 16.4531 8.26875 15.9785C7.25098 15.4828 6.12773 15.4828 5.06777 15.9891C4.70391 16.1631 4.53516 16.2897 4.13438 16.6852C3.73359 17.0859 3.61758 17.2389 3.43828 17.6133C3.31699 17.8611 3.1957 18.1723 3.15879 18.3094L3.10078 18.5625H2.1832H1.26562V11.9707V5.37892H9.25488H17.2441V11.9707ZM23.2559 10.6787L24.9697 12.3926H21.7371H18.5098V10.6787V8.96485H20.0285H21.542L23.2559 10.6787ZM25.7344 15.9258C25.7344 17.1703 25.7238 18.1934 25.7133 18.1934C25.7027 18.1934 25.6447 18.0563 25.5867 17.8875C25.2018 16.8434 24.1576 15.9574 23.0027 15.6938C21.6475 15.3879 20.1709 15.9258 19.3271 17.0438C19.0424 17.4182 18.7998 17.9139 18.7102 18.2988C18.6732 18.4518 18.6205 18.5625 18.5783 18.5625C18.5203 18.5625 18.5098 18.1143 18.5098 16.1104V13.6582H22.1221H25.7344V15.9258ZM7.31426 16.9541C8.80664 17.3971 9.50273 19.1109 8.72227 20.4346C8.05254 21.5842 6.53379 21.9533 5.42109 21.2361C4.66699 20.751 4.29258 20.0285 4.33477 19.1215C4.35059 18.6996 4.37695 18.5889 4.54043 18.2461C4.75137 17.8084 5.1627 17.3602 5.51074 17.1756C6.08027 16.8856 6.78164 16.7959 7.31426 16.9541ZM22.8393 16.9594C23.6566 17.202 24.2156 17.7399 24.4898 18.5414C24.5953 18.8525 24.6006 19.5539 24.5004 19.8861C24.3105 20.5137 23.8465 21.0727 23.2928 21.3469C21.5736 22.2117 19.5908 20.7721 19.8861 18.8789C20.0232 17.9719 20.7193 17.1914 21.5947 16.9541C21.9586 16.8539 22.4965 16.8592 22.8393 16.9594Z" fill="#540062"/>
</svg>
