<svg width="31" height="25" viewBox="0 0 31 25" fill="none" xmlns="http://www.w3.org/2000/svg">
<g clip-path="url(#clip0_93_52)">
<path d="M0.427041 0.141602L0.254715 0.283203V12.5V24.7168L0.427041 24.8584L0.599368 25H9.10873H17.6181L17.7904 24.8486L17.9627 24.6973V23.8477V22.998H21.6767H25.3906V23.8477V24.6973L25.5629 24.8486L25.7353 25H27.096C28.9025 24.9951 28.8371 25.0439 28.8371 23.8135V23.0127L29.1224 22.9785C29.4314 22.9443 29.6393 22.8223 29.7344 22.6221C29.7641 22.5537 29.7879 20.7959 29.7879 18.2812V14.0625H29.9602C30.1979 14.0625 30.4059 13.9941 30.5545 13.8623C30.6733 13.7549 30.6792 13.7012 30.6792 12.6416C30.6792 11.6016 30.6733 11.5283 30.5604 11.4111C30.4891 11.3379 30.3346 11.2598 30.2157 11.2305C30.0731 11.2012 28.0706 11.1816 24.4577 11.1816H18.9135V5.81543C18.9135 2.58789 18.8897 0.395508 18.86 0.327148C18.8244 0.258789 18.7412 0.15625 18.6699 0.102539L18.5332 0H9.56628H0.599368L0.427041 0.141602ZM8.93046 9.81445V18.6035H5.21653H1.5026V9.81445V1.02539H5.21653H8.93046V9.81445ZM17.6062 6.10352V11.1768L15.1877 11.1914C12.579 11.2061 12.5969 11.2061 12.4245 11.4697C12.3651 11.5576 12.3473 11.8652 12.3473 12.6416C12.3473 13.5791 12.3592 13.7109 12.4542 13.8281C12.5909 13.9893 12.8345 14.0625 13.2446 14.0625H13.5654V18.2812C13.5654 20.7959 13.5892 22.5537 13.6189 22.6221C13.714 22.8223 13.922 22.9443 14.231 22.9785L14.5162 23.0127V23.4912V23.9746H12.377H10.2378V12.5V1.02539H13.922H17.6062V6.10352ZM29.4314 12.6221V12.9883H21.5281H13.6249V12.6221V12.2559H21.5281H29.4314V12.6221ZM28.4806 15.6982V17.334H21.6767H14.8728V15.6982V14.0625H21.6767H28.4806V15.6982ZM28.4806 20.166V21.9238H21.6767H14.8728V20.166V18.4082H21.6767H28.4806V20.166ZM8.93046 21.8262V23.9746H5.21653H1.5026V21.8262V19.6777H5.21653H8.93046V21.8262ZM16.6554 23.4863V23.9746H16.2395H15.8235V23.4863V22.998H16.2395H16.6554V23.4863ZM27.5298 23.4863V23.9746H27.1139H26.6979V23.4863V22.998H27.1139H27.5298V23.4863Z" fill="black"/>
<path d="M6.4347 9.17969V10.2051H7.08835H7.742V9.17969V8.1543H7.08835H6.4347V9.17969Z" fill="black"/>
<path d="M11.4262 9.17969V10.2051H12.0502H12.6741V9.17969V8.1543H12.0502H11.4262V9.17969Z" fill="black"/>
<path d="M20.6962 15.5762V16.1133H21.6767H22.6572V15.5762V15.0391H21.6767H20.6962V15.5762Z" fill="black"/>
<path d="M20.6962 19.8975V20.4102H21.6767H22.6572V19.8975V19.3848H21.6767H20.6962V19.8975Z" fill="black"/>
<path d="M4.23605 21.6797V22.2168H5.21653H6.19701V21.6797V21.1426H5.21653H4.23605V21.6797Z" fill="black"/>
</g>
<defs>
<clipPath id="clip0_93_52">
<rect width="30.4245" height="25" fill="white" transform="translate(0.254715)"/>
</clipPath>
</defs>
</svg>
