<svg width="189" height="95" viewBox="0 0 189 95" fill="none" xmlns="http://www.w3.org/2000/svg">
<path d="M69.174 1.235C69.0795 1.36167 68.1345 1.58333 67.1265 1.71C66.087 1.83667 65.142 2.05833 65.0475 2.21667C64.9215 2.40667 64.4175 2.53333 63.882 2.53333C63.378 2.53333 62.433 2.755 61.803 3.04C60.5745 3.57833 56.133 5.76333 54.81 6.49167C53.8335 7.03 46.4625 13.9333 46.179 14.5667C45.675 15.77 44.982 16.7833 44.6985 16.7833C44.541 16.7833 44.415 16.9733 44.415 17.1633C44.415 17.385 43.785 18.8417 42.9975 20.3617C42.2415 21.9133 41.517 23.6867 41.391 24.32C41.265 24.985 41.076 25.65 40.9185 25.84C40.761 26.03 40.5405 27.2017 40.446 28.4367C40.32 29.7033 40.0995 30.7167 39.9735 30.7167C39.5955 30.7167 39.5955 38.2217 39.9735 38.4433C40.0995 38.5383 40.32 39.6783 40.383 40.9767C40.4775 42.3067 40.698 43.5417 40.8555 43.7633C41.0445 43.985 41.2965 44.6817 41.4225 45.2833C41.5485 45.885 41.769 46.5817 41.895 46.8667C42.021 47.12 42.588 48.3233 43.1865 49.5583C43.7535 50.7617 44.6355 52.2817 45.108 52.915C45.5805 53.5483 45.99 54.2767 45.99 54.4667C45.99 54.9733 53.3925 62.3833 53.865 62.3833C54.054 62.3833 54.684 62.7 55.2195 63.1117C56.7315 64.1883 57.3615 64.5367 58.905 65.265C59.6925 65.6133 60.732 66.12 61.2045 66.3733C61.7085 66.6267 62.685 66.9117 63.4095 67.0067C64.134 67.1333 64.89 67.355 65.1105 67.5133C65.2995 67.6717 66.465 67.8933 67.6935 67.9883C68.9535 68.0833 70.0245 68.305 70.119 68.4317C70.3395 68.8117 76.4505 68.8117 76.671 68.4317C76.7655 68.305 77.868 68.0833 79.0965 67.9883C80.3565 67.8933 81.522 67.64 81.711 67.45C81.8685 67.2917 82.404 67.1333 82.845 67.1333C83.286 67.1333 83.916 66.9433 84.2625 66.69C84.609 66.4683 85.3335 66.1517 85.9005 66.0567C87.318 65.74 89.3655 64.6633 91.5705 63.1117C92.106 62.7 92.736 62.3833 92.9565 62.3833C93.555 62.3833 100.926 54.7517 101.619 53.4533C102.123 52.44 104.013 48.6717 104.895 46.8667C105.021 46.5817 105.242 45.885 105.368 45.2833C105.494 44.6817 105.746 43.985 105.935 43.7633C106.092 43.5417 106.313 42.37 106.407 41.1667C106.47 39.9317 106.691 38.95 106.817 38.95C106.974 38.95 107.1 37.0817 107.1 34.8333C107.1 32.5533 106.974 30.7167 106.817 30.7167C106.691 30.7167 106.439 29.5767 106.344 28.1833C106.218 26.79 105.998 25.5867 105.84 25.4917C105.714 25.3967 105.494 24.8583 105.399 24.2567C105.273 23.655 104.549 21.9133 103.793 20.3617C103.005 18.8417 102.375 17.385 102.375 17.1633C102.375 16.9733 102.249 16.7833 102.092 16.7833C101.808 16.7833 101.115 15.77 100.611 14.5667C100.328 13.9333 92.9565 7.03 91.98 6.49167C91.539 6.27 89.9955 5.47833 88.515 4.75C87.0345 4.02167 85.5855 3.29333 85.2705 3.135C84.987 2.97667 84.0735 2.755 83.3175 2.62833C82.53 2.53333 81.8055 2.34333 81.711 2.185C81.648 2.05833 80.703 1.83667 79.6635 1.71C78.6555 1.58333 77.7105 1.36167 77.616 1.235C77.5215 1.07667 75.6315 0.950001 73.395 0.950001C71.1585 0.950001 69.2685 1.07667 69.174 1.235ZM79.443 2.43833C79.6635 2.62833 80.4825 2.88167 81.27 2.97667C82.593 3.19833 83.5065 3.48333 84.798 4.14833C85.113 4.30667 85.5225 4.43333 85.743 4.43333C86.6565 4.43333 92.421 7.695 93.2085 8.67667C93.429 8.96167 93.744 9.18334 93.87 9.18334C94.248 9.18334 99.54 14.3767 99.54 14.725C99.54 14.8517 99.729 15.2317 99.981 15.485C100.233 15.77 101.084 17.2583 101.903 18.81C102.69 20.3617 103.541 21.9133 103.793 22.2933C104.045 22.6417 104.265 23.2433 104.265 23.5917C104.265 23.94 104.486 24.6367 104.738 25.1433C104.99 25.6183 105.21 26.505 105.21 27.1067C105.21 27.6767 105.368 28.2467 105.557 28.3733C105.746 28.5 105.809 29.0067 105.714 29.6083C105.588 30.21 105.651 30.7483 105.84 30.875C106.029 31.0017 106.155 32.585 106.155 34.8333C106.155 37.0817 106.029 38.665 105.84 38.7917C105.651 38.9183 105.588 39.4567 105.714 40.1217C105.903 41.135 105.777 41.5783 104.895 43.3833C104.769 43.6683 104.549 44.365 104.423 44.9667C104.297 45.5683 104.076 46.265 103.95 46.55C100.548 53.5167 100.328 53.9283 99.5715 54.5933C99.1935 54.9417 98.91 55.3533 98.91 55.5117C98.91 55.8283 94.2795 60.4833 93.9645 60.4833C93.87 60.4833 93.2715 60.895 92.6415 61.37C92.0115 61.845 91.098 62.4467 90.5625 62.7C90.0585 62.9533 89.019 63.555 88.326 64.03C87.6015 64.5367 86.751 64.9167 86.436 64.9167C86.0895 64.9167 85.176 65.265 84.357 65.6767C83.5695 66.0883 82.215 66.5317 81.3645 66.6583C80.5455 66.785 79.6635 67.0383 79.4115 67.2283C78.813 67.735 67.977 67.735 67.3785 67.26C67.1265 67.0383 66.3075 66.785 65.52 66.69C64.1025 66.4683 63.252 66.1833 61.677 65.36C61.236 65.1067 60.606 64.9167 60.3225 64.9167C60.039 64.9167 59.1885 64.5367 58.464 64.03C57.771 63.555 56.763 62.9533 56.2275 62.7C55.7235 62.4467 54.684 61.7817 53.9595 61.2117C53.235 60.6417 52.605 60.1667 52.5105 60.1667C52.4475 60.1667 51.408 59.2483 50.2425 58.1083C48.2895 56.24 47.6595 55.48 47.061 54.15C46.935 53.8967 46.4625 53.1683 45.99 52.5667C45.549 51.965 44.6985 50.445 44.1315 49.2417C43.533 48.0067 42.966 46.8033 42.84 46.55C42.714 46.265 42.4935 45.5683 42.3675 44.9667C42.2415 44.365 42.021 43.6683 41.895 43.3833C40.9815 41.515 40.887 41.1033 41.0445 39.7733C41.1705 38.95 41.1075 38.2533 40.95 38.1583C40.5405 37.905 40.5405 31.1283 40.95 30.875C41.139 30.7483 41.202 30.21 41.076 29.6083C40.9815 29.0067 41.0445 28.5 41.2335 28.3733C41.4225 28.2467 41.58 27.74 41.58 27.2333C41.58 26.7267 41.7375 26.22 41.9265 26.0933C42.1155 25.9983 42.21 25.6183 42.1155 25.3017C42.021 24.985 42.084 24.605 42.2415 24.51C42.399 24.415 42.525 24.035 42.525 23.655C42.525 23.2433 42.7455 22.6417 42.9975 22.2933C43.2495 21.9133 44.1 20.3617 44.8875 18.81C45.7065 17.2583 46.557 15.77 46.809 15.485C47.061 15.2317 47.25 14.8517 47.25 14.725C47.25 14.3767 52.542 9.18334 52.92 9.18334C53.046 9.18334 53.361 8.96167 53.5815 8.67667C54.369 7.72667 60.1335 4.43333 61.0155 4.43333C61.236 4.43333 61.866 4.18 62.433 3.86333C63 3.515 64.26 3.16667 65.205 3.04C66.15 2.91333 67.0635 2.69167 67.2525 2.53333C67.788 2.09 69.5835 1.96333 74.403 2.02667C77.0175 2.09 79.2225 2.24833 79.443 2.43833Z" fill="#540062"/>
<path d="M73.332 22.23C69.426 26.9167 66.8115 29.2283 64.6695 29.83C63.8505 30.0517 63 30.02 61.677 29.7667C59.913 29.3867 59.787 29.3867 59.0625 30.0833C58.3065 30.8117 58.275 30.9383 58.275 35.3083C58.275 39.6467 58.3065 39.805 59.031 40.5017C59.7555 41.1983 59.913 41.23 61.425 40.85C62.307 40.6283 63.504 40.565 64.1025 40.66C65.583 40.945 68.4495 43.1617 70.7175 45.7583C75.1905 50.8567 75.411 50.9833 77.1435 49.5267C78.12 48.7033 78.12 48.7033 78.12 45.5367V42.37L79.821 43.8267C80.766 44.6183 81.8055 45.2833 82.1205 45.2833C82.845 45.2833 84.42 43.7 84.42 43.0033C84.42 42.7183 83.286 41.515 81.9 40.3117L79.38 38.1583L81.963 38.0633C83.3805 38 84.735 37.81 84.9555 37.62C85.176 37.43 85.365 36.765 85.365 36.1C85.365 34.3583 84.7035 33.915 81.774 33.82L79.317 33.725L81.8685 31.5717C83.2545 30.3683 84.42 29.2283 84.42 29.0067C84.42 28.5 82.467 26.6 81.9315 26.6C81.6795 26.6 80.7345 27.265 79.821 28.0567L78.12 29.5133V25.745C78.12 22.1983 78.0885 21.9133 77.3955 21.28C76.9545 20.8683 76.2615 20.5833 75.663 20.5833C74.8755 20.5833 74.4345 20.9 73.332 22.23ZM76.797 21.9133C77.0805 22.1983 77.175 25.6183 77.175 35.3717V48.45L76.419 48.925C75.411 49.59 74.7495 49.2417 73.269 47.215C71.6625 44.9983 67.3785 41.04 65.7405 40.2483C64.26 39.52 62.811 39.425 61.1415 39.9C59.346 40.4067 59.22 40.0583 59.22 35.3083C59.22 30.3683 59.3145 30.1783 61.551 30.7483C65.142 31.6667 68.5125 29.64 73.269 23.655C75.033 21.5017 75.9465 21.0583 76.797 21.9133ZM82.782 28.2783L83.475 29.0067L81.144 30.97C79.8525 32.0467 78.7185 32.9333 78.624 32.9333C78.5295 32.9333 78.435 32.3633 78.435 31.6983C78.435 30.59 78.624 30.305 80.1045 29.0067C80.9865 28.215 81.837 27.55 81.9315 27.55C82.026 27.55 82.404 27.8667 82.782 28.2783ZM84.357 36.005L84.4515 37.05H81.459H78.435V35.9417V34.8017L81.3645 34.8967L84.2625 34.9917L84.357 36.005ZM80.136 40.0267C83.916 43.1933 83.6955 42.9083 83.034 43.6683C82.6875 44.0483 82.3095 44.3333 82.152 44.3333C81.963 44.3333 81.081 43.6683 80.136 42.8767C78.624 41.5783 78.435 41.2617 78.435 40.185C78.435 39.4883 78.5295 38.95 78.624 38.95C78.75 38.95 79.4115 39.425 80.136 40.0267Z" fill="#540062"/>
<path d="M108.36 51.775V64.2833H111.195H114.03V56.3033C114.03 51.9333 114.093 48.4183 114.188 48.5133C114.282 48.6083 114.786 51.87 115.29 55.765C116.582 65.3283 116.204 64.3466 118.535 64.22L120.488 64.125L121.464 56.3666L122.472 48.6083L122.504 51.9333C122.535 53.77 122.63 57.285 122.756 59.7866L122.945 64.2833H125.748H128.52V51.775V39.2667H124.299H120.078L119.763 41.5467C119.574 42.8133 119.259 45.2517 119.039 46.93C118.818 48.64 118.566 50.0333 118.44 50.0333C118.346 50.0333 117.905 47.6583 117.495 44.7133L116.708 39.425L112.55 39.33L108.36 39.235V51.775Z" fill="#540062"/>
<path d="M132.93 39.4883C132.93 39.6466 132.205 44.9983 131.355 51.4266C130.473 57.855 129.78 63.365 129.78 63.7133C129.78 64.2516 130 64.2833 133.024 64.22L136.237 64.125L136.332 62.7C136.489 60.04 136.584 59.85 137.97 59.85H139.23V61.56C139.23 64.315 139.167 64.2833 142.726 64.2833C144.427 64.2833 145.845 64.1566 145.845 64.03C145.845 63.6183 142.411 40.7866 142.222 39.9633C142.065 39.2666 141.97 39.2666 137.497 39.2666C134.977 39.2666 132.93 39.3616 132.93 39.4883ZM138.442 50.3183C138.694 52.82 138.915 54.9733 138.915 55.1316C138.915 55.29 138.348 55.4166 137.655 55.4166C136.395 55.4166 136.363 55.4166 136.521 54.3716C136.615 53.8333 136.93 51.4266 137.245 49.0833C137.529 46.74 137.812 45.03 137.875 45.2833C137.907 45.5366 138.159 47.8166 138.442 50.3183Z" fill="#540062"/>
<path d="M144.27 41.8V44.3333H146.16H148.05V54.3083V64.2833H151.2H154.35V54.3083V44.3333H156.24H158.13V41.8V39.2667H151.2H144.27V41.8Z" fill="#540062"/>
<path d="M144.774 69.6983C141.592 70.49 140.458 72.1367 140.395 75.9683C140.364 79.7683 140.994 80.7817 145.089 83.6317C147.01 84.9617 148.554 86.26 148.711 86.7033C149.373 88.4767 148.869 90.8833 147.798 90.8833C146.758 90.8833 146.475 90.1867 146.475 87.8117V85.5H143.451H140.395L140.553 88.1917C140.742 91.2 141.34 92.53 142.978 93.6383C145.246 95.19 149.499 95.3167 152.176 93.955C154.318 92.8467 154.791 91.9283 154.948 88.7617C155.137 83.8533 154.318 82.46 149.152 79.0717L146.632 77.425V75.525C146.632 73.91 146.727 73.625 147.231 73.53C148.113 73.34 148.68 74.3217 148.68 75.905V77.2667H151.672C154.57 77.2667 154.665 77.235 154.665 76.5383C154.665 74.8917 154.003 72.0733 153.499 71.4717C152.113 69.8883 147.609 68.97 144.774 69.6983Z" fill="#540062"/>
<path d="M48.195 69.8883C48.195 70.0467 47.4705 75.3983 46.62 81.8267C45.738 88.255 45.045 93.765 45.045 94.1133C45.045 94.6517 45.2655 94.6833 48.2895 94.62L51.5025 94.525L51.597 93.1C51.7545 90.44 51.849 90.25 53.235 90.25H54.495V91.96C54.495 94.715 54.432 94.6833 57.9915 94.6833C59.6925 94.6833 61.11 94.5567 61.11 94.43C61.11 94.0183 57.6765 71.1867 57.4875 70.3633C57.33 69.6667 57.2355 69.6667 52.7625 69.6667C50.2425 69.6667 48.195 69.7617 48.195 69.8883ZM53.7075 80.7183C53.9595 83.22 54.18 85.3733 54.18 85.5317C54.18 85.69 53.613 85.8167 52.92 85.8167C51.66 85.8167 51.6285 85.8167 51.786 84.7717C51.8805 84.2333 52.1955 81.8267 52.5105 79.4833C52.794 77.14 53.0775 75.43 53.1405 75.6833C53.172 75.9367 53.424 78.2167 53.7075 80.7183Z" fill="#540062"/>
<path d="M62.37 82.2067V94.7467L68.292 94.6517C73.521 94.525 74.3085 94.4617 75.285 93.86C77.2695 92.72 77.3325 92.3717 77.3325 82.4917C77.3325 74.195 77.301 73.5617 76.7025 72.5483C76.356 71.9467 75.726 71.2183 75.285 70.9017C74.2455 70.11 70.9695 69.6667 66.2445 69.6667H62.37V82.2067ZM70.497 74.1633C70.7805 74.4483 70.875 76.665 70.875 82.175C70.875 90.0917 70.812 90.5667 69.552 90.5667C69.0165 90.5667 68.985 90.06 68.985 82.175C68.985 74.29 69.0165 73.7833 69.552 73.7833C69.867 73.7833 70.2765 73.9417 70.497 74.1633Z" fill="#540062"/>
<path d="M80.136 82.175L82.0575 94.6833H86.8455C91.5705 94.6833 91.665 94.6833 91.791 93.955C91.8855 93.575 92.61 88.35 93.3975 82.3333C94.185 76.3167 94.9095 71.0283 95.004 70.5217L95.193 69.6667H91.728H88.2945L87.7275 75.905C87.444 79.3567 87.0975 83.1567 86.9715 84.3917L86.751 86.6083L86.499 83.9167C86.373 82.4283 85.995 78.66 85.6485 75.5567C85.3335 72.4217 85.05 69.825 85.05 69.7617C85.05 69.73 83.5065 69.6667 81.648 69.6667H78.246L80.136 82.175Z" fill="#540062"/>
<path d="M96.075 82.175V94.6833H101.745H107.415V92.15V89.6167H105.053H102.69V86.925V84.2333H104.58H106.47V81.8583V79.4833H104.58H102.69V77.1083V74.7333H104.738H106.785V72.2V69.6667H101.43H96.075V82.175Z" fill="#540062"/>
<path d="M109.305 82.1433V94.6833H112.613H115.92V88.9833C115.92 83.5367 115.952 83.2833 116.55 83.2833C117.59 83.2833 117.81 84.2967 117.81 89.585V94.6833H120.803H123.795V89.7433C123.795 83.98 123.48 82.9033 121.622 82.08L120.488 81.605L121.527 81.2883C123.197 80.7817 123.638 79.8 123.638 76.475C123.638 73.0233 123.008 71.4717 121.149 70.5217C120.141 69.9833 119.102 69.8567 114.629 69.73L109.305 69.5717V82.1433ZM117.495 74.385C117.936 75.24 117.905 78.6283 117.432 79.1033C117.212 79.325 116.802 79.4833 116.487 79.4833C115.983 79.4833 115.92 79.1667 115.92 76.6333C115.92 74.005 115.983 73.7833 116.55 73.7833C116.865 73.7833 117.306 74.0683 117.495 74.385Z" fill="#540062"/>
<path d="M125.37 72.2V74.7333H127.26H129.15V84.7083V94.6833H132.3H135.45V84.7083V74.7333H137.34H139.23V72.2V69.6667H132.3H125.37V72.2Z" fill="#540062"/>
</svg>
