<svg width="13" height="21" viewBox="0 0 13 21" fill="none" xmlns="http://www.w3.org/2000/svg">
<path d="M6.23218 0.509766C6.15943 0.563477 1.63544 6.14941 0.60034 7.46289C0.405226 7.71191 0.256411 7.94141 0.229954 8.03906C0.117516 8.43457 0.226647 8.88379 0.481288 9.06934C0.613568 9.17188 0.676401 9.18164 1.0997 9.18164H1.5726L1.57922 14.1523L1.58914 19.1182L1.69496 19.4404C1.83386 19.8506 2.05212 20.1729 2.3266 20.373L2.54817 20.5342L3.6461 20.5488L4.74734 20.5635V17.7705C4.74734 15.0654 4.75064 14.9678 4.81348 14.7725C4.93914 14.3916 4.90607 14.3965 6.50997 14.416L7.92868 14.4307L8.04112 14.6113L8.15356 14.7969V17.6777V20.5635L9.27133 20.5488L10.3858 20.5342L10.6074 20.373C10.8852 20.1729 11.1596 19.748 11.2688 19.3525L11.3448 19.0693L11.3547 14.123L11.3614 9.18164H11.8343C12.37 9.18164 12.5155 9.11816 12.6544 8.83496C12.7536 8.62988 12.7668 8.15137 12.6776 7.95605C12.6478 7.8877 12.3502 7.49219 12.0162 7.07715C8.38836 2.56543 6.81753 0.62207 6.72493 0.539062C6.59596 0.426758 6.36116 0.412109 6.23218 0.509766Z" fill="black"/>
</svg>
