<svg width="15" height="25" viewBox="0 0 15 25" fill="none" xmlns="http://www.w3.org/2000/svg">
<path d="M1.5511 0.0432701C1.31784 0.144232 1.11163 0.394232 0.989935 0.721155C0.929085 0.884617 0.925705 1.26443 0.925705 12.3077C0.925705 23.3462 0.929085 23.7308 0.989935 23.8942C1.09135 24.1731 1.28404 24.4183 1.47335 24.5192C1.65251 24.6154 1.74379 24.6154 7.46698 24.6154C13.1902 24.6154 13.2814 24.6154 13.4606 24.5192C13.6499 24.4183 13.8426 24.1731 13.944 23.8942C14.0049 23.7308 14.0083 23.3462 14.0083 12.3077C14.0083 1.26443 14.0049 0.884617 13.944 0.721155C13.8561 0.485579 13.6939 0.250002 13.535 0.129808L13.3998 0.0240402L7.51769 0.0144253C4.28254 0.00961685 1.59843 0.0240402 1.5511 0.0432701ZM5.10063 2.52404V4.23077H3.29206H1.48349L1.48011 3.63943C1.48011 2.97596 1.48011 1.45193 1.48349 1.21154C1.48349 1.10577 1.51053 1.01443 1.57138 0.937502L1.66265 0.817308H3.37995H5.10063V2.52404ZM13.3626 0.937502C13.4133 1.00481 13.4505 1.10577 13.4538 1.1875C13.4538 1.25962 13.4538 1.70193 13.4538 2.16346C13.4505 2.625 13.4505 3.27885 13.4505 3.61539V4.23077H9.54599H5.64151V2.52404V0.817308H9.45809H13.2713L13.3626 0.937502ZM13.4505 5.10577C13.4505 5.16346 13.4505 19.0192 13.4505 21.2115V22.1154H7.46698H1.48349V21.2356C1.48011 20.1154 1.48011 5.12981 1.48349 5.08173C1.48349 5.0625 4.17775 5.04808 7.46698 5.04808C12.2301 5.04808 13.4505 5.0625 13.4505 5.10577ZM13.4572 22.9808C13.464 23.0048 13.4606 23.1442 13.4572 23.2885C13.4471 23.4952 13.4268 23.5817 13.3592 23.6779L13.2713 23.7981H7.46698H1.66265L1.57138 23.6731C1.50377 23.5721 1.48349 23.4952 1.48011 23.3221C1.48011 23.2019 1.47335 23.0625 1.46659 23.0144C1.45644 22.9375 1.76069 22.9327 7.45008 22.9327C11.3613 22.9327 13.4471 22.9471 13.4572 22.9808Z" fill="black"/>
<path d="M2.23396 3.0577C2.11565 3.17309 2.08522 3.34136 2.13931 3.53366C2.21368 3.77885 2.31509 3.79808 3.34276 3.78366C4.13718 3.77405 4.25212 3.76443 4.33325 3.68751C4.49889 3.53366 4.48199 3.15386 4.30282 3.03366C4.24536 3.00001 3.90055 2.98078 3.26501 2.98078C2.44355 2.98078 2.29819 2.99039 2.23396 3.0577Z" fill="black"/>
<path d="M7.10864 1.38942C6.943 1.49519 6.75031 1.76923 6.66917 2.00961C6.63537 2.10577 6.60156 2.3125 6.5948 2.46635C6.58128 2.70192 6.5948 2.78846 6.68608 3.04808C6.84834 3.52404 7.10188 3.75 7.46697 3.75C7.83207 3.75 8.08561 3.52404 8.24787 3.04808C8.33914 2.78846 8.35267 2.70192 8.33914 2.46635C8.32224 2.12981 8.24787 1.89423 8.08561 1.65384C7.9132 1.40384 7.73065 1.29807 7.46697 1.29807C7.32499 1.29807 7.19991 1.33173 7.10864 1.38942ZM7.69685 2.24038C7.79826 2.40385 7.79488 2.64904 7.69009 2.82211C7.5143 3.11538 7.16273 2.92308 7.16273 2.53365C7.16273 2.11538 7.50416 1.92788 7.69685 2.24038Z" fill="black"/>
<path d="M9.16061 2.16827C8.89355 2.32212 8.94764 2.83173 9.23498 2.90866C9.29921 2.92789 9.55613 2.93269 9.80967 2.92308C10.2322 2.90866 10.2762 2.89904 10.3472 2.80289C10.4486 2.65866 10.4486 2.38943 10.3472 2.24519C10.2762 2.14423 10.239 2.13943 9.75558 2.12981C9.47162 2.125 9.20456 2.13943 9.16061 2.16827Z" fill="black"/>
<path d="M11.2565 2.16826C11.0064 2.31249 11.0334 2.8173 11.2971 2.91345C11.3444 2.92788 11.6013 2.93268 11.8718 2.92307C12.3315 2.90864 12.3721 2.89903 12.4431 2.80288C12.5445 2.65864 12.5445 2.38941 12.4431 2.24518C12.3721 2.14422 12.3349 2.13941 11.8515 2.1298C11.5675 2.12499 11.3005 2.13941 11.2565 2.16826Z" fill="black"/>
<path d="M6.67256 6.92309C4.70173 7.48559 3.30896 9.89424 3.30896 12.7404C3.30896 15.5577 4.68482 17.9423 6.65566 18.5433C7.05456 18.6635 7.8794 18.6635 8.2783 18.5433C10.0024 18.0192 11.2836 16.1298 11.5777 13.6827C11.6453 13.1106 11.6284 12.0481 11.5405 11.4904C11.1686 9.1202 9.84347 7.3077 8.18026 6.90386C7.75432 6.80289 7.06808 6.8077 6.67256 6.92309ZM7.8625 7.64905C8.22759 7.70674 8.65353 7.8702 8.96454 8.07213C9.45133 8.38463 10.0057 9.01924 10.3472 9.66347C10.5601 10.0577 10.8576 10.9231 10.9455 11.3942C11.3782 13.7067 10.6413 16.1154 9.15385 17.2548C8.12618 18.0433 6.80778 18.0433 5.78011 17.2548C4.29269 16.1154 3.55574 13.7019 3.98844 11.3942C4.07633 10.9231 4.37382 10.0577 4.58679 9.66347C5.175 8.56251 6.06745 7.82213 7.01061 7.64905C7.34866 7.59136 7.49402 7.59136 7.8625 7.64905Z" fill="black"/>
<path d="M6.92609 8.57693C5.90856 8.88462 5.104 9.81251 4.72538 11.1202C4.13041 13.1683 4.75581 15.5192 6.16547 16.5289C7.11878 17.2115 8.33914 17.0577 9.20793 16.1442C9.95164 15.3654 10.381 14.2212 10.4317 12.9087C10.4689 11.8462 10.1883 10.7404 9.66429 9.89424C9.34315 9.3702 8.75494 8.86058 8.24448 8.65385C7.91657 8.51924 7.24385 8.48077 6.92609 8.57693ZM8.23096 9.49039C9.1775 9.92789 9.86712 11.2789 9.86712 12.7019C9.86712 13.2789 9.79275 13.7308 9.60344 14.2789C9.333 15.0721 8.81579 15.7019 8.19377 15.9952C7.95376 16.1106 7.87263 16.125 7.46697 16.125C7.06131 16.125 6.98018 16.1106 6.74016 15.9952C5.76658 15.5337 5.12766 14.3558 5.07695 12.9231C5.03977 11.9087 5.24936 11.101 5.73953 10.3702C6.06406 9.87981 6.39873 9.60097 6.86524 9.42308C7.23033 9.28366 7.85234 9.31251 8.23096 9.49039Z" fill="black"/>
</svg>
