<svg width="31" height="25" viewBox="0 0 31 25" fill="none" xmlns="http://www.w3.org/2000/svg">
<path d="M16.0292 4.59473C15.0007 5.50781 14.1376 6.27441 14.1078 6.29883C14.0714 6.32812 13.916 6.21582 13.5324 5.87891C13.2447 5.625 12.9702 5.41992 12.9272 5.41992C12.8247 5.41992 7.12338 10.4541 7.05063 10.6104C7.01094 10.6982 7.00102 10.9082 7.00102 11.8506C7.00102 13.0518 7.01425 13.1836 7.15645 13.2764C7.27881 13.3594 7.32511 13.3447 7.58306 13.1348C7.71534 13.0273 7.83439 12.9395 7.84431 12.9395C7.85423 12.9395 7.85754 14.4336 7.85423 16.2598L7.84431 19.5801H10.943H14.0417L14.0516 17.2168L14.0615 14.8535L14.1409 14.7266L14.2202 14.5996H15.467H16.7137L16.7931 14.7266L16.8725 14.8535L16.8824 17.2168L16.8923 19.5801H19.8951C22.8052 19.5801 22.9045 19.5752 22.9772 19.4873L23.0566 19.3945L23.0731 14.8975L23.0896 10.4053L23.3377 10.6201C23.4733 10.7422 23.6188 10.8398 23.6618 10.8398C23.7048 10.8398 23.7841 10.7764 23.837 10.6982L23.9329 10.5566V9.37988V8.20312L23.8436 8.06152C23.7907 7.9834 22.4812 6.79688 20.9302 5.4248C18.7608 3.50586 18.0828 2.92969 18.0035 2.92969C17.9241 2.93457 17.4082 3.36914 16.0292 4.59473ZM20.2721 7.91016L22.5076 9.8877L22.5109 13.4863V17.0898H22.2298H21.9487V14.707V12.3193L21.8627 12.2021L21.7768 12.085L20.6491 12.0703C20.0274 12.0605 19.4685 12.0703 19.4056 12.085C19.3461 12.1045 19.2601 12.168 19.2171 12.2314L19.1378 12.3486V14.7217V17.0898H18.5756H18.0134V15.0146C18.0134 13.8721 18.0233 12.9395 18.0332 12.9395C18.0431 12.9395 18.1523 13.0273 18.2746 13.1348C18.5293 13.3594 18.6351 13.374 18.7608 13.2178L18.8501 13.1055V11.8945V10.6885L18.7707 10.5713C18.7277 10.5078 18.0431 9.88281 17.2528 9.17969C16.4624 8.48145 15.8109 7.90039 15.8043 7.89062C15.7878 7.86621 17.9902 5.9082 18.0167 5.92285C18.0299 5.92773 19.0452 6.82129 20.2721 7.91016ZM18.2713 11.0596C18.2746 11.0645 18.2746 11.3135 18.2713 11.6113L18.2614 12.1533L15.6489 9.83398C13.6514 8.06152 13.0132 7.51953 12.9305 7.51953C12.8511 7.51953 12.2096 8.06152 10.2088 9.83887C8.77027 11.1133 7.58636 12.1582 7.57644 12.1582C7.56983 12.1582 7.56321 11.9092 7.56321 11.6064L7.56652 11.0596L10.2452 8.68652L12.9272 6.31836L15.5926 8.68164C17.061 9.98047 18.2647 11.0498 18.2713 11.0596ZM21.3865 15.8203V18.75H20.5432H19.7V15.8203V12.8906H20.5432H21.3865V15.8203ZM13.4133 13.0664C13.4795 13.1934 13.4828 13.2471 13.4828 15.1416C13.4828 16.8066 13.4894 17.0898 13.5291 17.0898C13.5555 17.0898 13.6184 17.1436 13.668 17.207C13.787 17.3535 13.7969 17.627 13.6878 17.7881L13.6117 17.8955L11.2902 17.9102C9.55073 17.9199 8.94555 17.9053 8.87279 17.8613C8.81657 17.8271 8.76035 17.7393 8.73059 17.6416C8.67106 17.4268 8.72398 17.2412 8.8761 17.1387L8.98523 17.0654V15.1221V13.1787L9.06791 13.0615L9.14727 12.9395H11.2472H13.3472L13.4133 13.0664ZM19.1378 18.335V18.75H18.5756H18.0134V18.335V17.9199H18.5756H19.1378V18.335ZM22.5109 18.335V18.75H22.2298H21.9487V18.335V17.9199H22.2298H22.5109V18.335Z" fill="black"/>
<path d="M20.368 15.5273C20.2721 15.6592 20.2456 15.835 20.3018 15.9961C20.3614 16.1816 20.4738 16.2598 20.6854 16.2598C20.9037 16.2598 21.0393 16.1621 21.0823 15.9668C21.1253 15.7959 21.1087 15.6934 21.0128 15.5371C20.9533 15.4443 20.9136 15.4297 20.6921 15.4297C20.4837 15.4297 20.4275 15.4492 20.368 15.5273Z" fill="black"/>
<path d="M9.54742 14.3652V14.9902H10.2584H10.9727L10.9628 14.375L10.9529 13.7598L10.2485 13.7549L9.54742 13.7451V14.3652Z" fill="black"/>
<path d="M11.6408 13.7695L11.5019 13.7939L11.5085 14.3896L11.5151 14.9902H12.2195H12.9206V14.3652V13.7451H12.3485C12.0376 13.7451 11.7168 13.7549 11.6408 13.7695Z" fill="black"/>
<path d="M9.54742 16.4551V17.0898H10.2584H10.9727L10.9628 16.4648L10.9529 15.8447L10.2518 15.8301L9.54742 15.8203V16.4551Z" fill="black"/>
<path d="M11.5283 15.8301C11.5283 15.8398 11.5217 16.123 11.5217 16.4697L11.5151 17.0898H12.2195H12.9206V16.4551V15.8203H12.2261C11.8458 15.8203 11.5316 15.8252 11.5283 15.8301Z" fill="black"/>
<path d="M14.6072 18.75V22.0703H15.467H16.3268V18.75V15.4297H15.467H14.6072V18.75ZM15.9233 18.0176C16.0755 18.2275 16.0457 18.5498 15.8638 18.6865C15.6753 18.8281 15.2752 18.7256 15.2223 18.5303C15.1793 18.3594 15.2024 18.1592 15.2851 18.042C15.3545 17.9346 15.3942 17.9199 15.6092 17.9199C15.8076 17.9199 15.8638 17.9395 15.9233 18.0176Z" fill="black"/>
<path d="M7.86085 21.1182C7.86085 21.8115 7.86415 21.8359 7.94352 21.9482L8.02289 22.0703H11.0356H14.045V21.2402V20.4102H10.9529H7.86085V21.1182Z" fill="black"/>
<path d="M16.889 21.2402V22.0703H17.3619C18.0101 22.0654 18.0134 22.0605 18.0134 21.0742V20.4102H17.4512H16.889V21.2402Z" fill="black"/>
</svg>
