<svg width="32" height="32" viewBox="0 0 32 32" fill="none" xmlns="http://www.w3.org/2000/svg">
<path d="M13.8667 0.156445C7.76534 0.924444 2.38934 5.56089 0.65423 11.5769C-0.711103 16.256 0.241786 21.5609 3.1289 25.4293C9.13067 33.5076 20.6933 34.2044 27.5911 26.9369C33.6925 20.5227 33.3938 10.5387 26.9369 4.40889C23.4098 1.05244 18.7591 -0.455112 13.8667 0.156445ZM19.9822 1.62133C21.76 2.13333 23.9076 3.24266 25.2871 4.352C27.7476 6.31466 29.4116 8.81778 30.3929 12.0178C30.7485 13.2267 30.7769 13.4542 30.7769 16C30.7769 18.5458 30.7485 18.7733 30.3929 19.9822C29.0987 24.2062 26.4391 27.4347 22.6845 29.2978C20.4516 30.4071 19.1147 30.7484 16.5547 30.8196C14.08 30.9049 12.8142 30.72 10.7947 29.952C6.35734 28.288 3.01512 24.6613 1.60712 19.9822C1.25156 18.7876 1.22312 18.5316 1.22312 16C1.22312 13.4684 1.25156 13.2124 1.60712 12.0178C3.01512 7.33867 6.35734 3.712 10.7947 2.048C12.8569 1.28 13.7245 1.13778 16.3556 1.19467C18.3893 1.23733 18.8729 1.29422 19.9822 1.62133Z" fill="#540062"/>
<path d="M13.9378 10.1689C12.4444 10.5813 11.1787 11.7333 10.5671 13.2409C10.3822 13.6818 10.3111 14.2365 10.3111 15.0756C10.3111 16.128 10.368 16.3982 10.7235 17.1236C11.2498 18.2045 12.0889 19.0436 13.1698 19.5698C13.8951 19.9253 14.1653 19.9822 15.2178 19.9822C16.4693 19.9822 17.28 19.7547 18.0622 19.2L18.432 18.9298L20.0675 20.5653C20.9493 21.4613 21.7884 22.1867 21.9164 22.1867C22.2435 22.1867 22.5138 21.8311 22.4142 21.5182C22.3715 21.376 21.632 20.5653 20.7787 19.712L19.2284 18.1618L19.5555 17.6498C20.0675 16.896 20.3947 15.4596 20.2809 14.5209C19.9253 11.4631 16.8675 9.35823 13.9378 10.1689ZM17.0382 11.4631C18.432 12.16 19.2 13.4542 19.2 15.1467C19.2 17.2516 17.4507 18.9582 15.2889 18.944C11.8471 18.944 10.0693 14.9476 12.3591 12.3449C13.4542 11.0933 15.5164 10.6951 17.0382 11.4631Z" fill="#540062"/>
</svg>
