<svg width="27" height="27" viewBox="0 0 27 27" fill="none" xmlns="http://www.w3.org/2000/svg">
<path d="M10.6506 3.98939L8.86022 7.81072L8.75012 7.83001C8.68721 7.84103 7.8641 7.96776 6.92041 8.11103C5.97671 8.25705 4.21778 8.52429 3.01457 8.70613C1.81136 8.89072 0.817866 9.04776 0.810002 9.05878C0.802137 9.0698 0.650098 9.54919 0.471845 10.125L0.152039 11.1719L0.477088 11.5026C0.657962 11.6844 1.96865 13.0234 3.38943 14.4753C5.49176 16.6215 5.97409 17.1285 5.96361 17.1753C5.95574 17.2084 5.70934 18.7209 5.4105 20.5393C5.11428 22.3577 4.81021 24.2201 4.73419 24.6802L4.59788 25.5123L4.6503 25.5646C4.68176 25.5921 5.0671 25.8897 5.51273 26.2258L6.31749 26.8402L9.89042 24.8648C11.8538 23.7765 13.4738 22.8756 13.4896 22.8646C13.5053 22.8508 14.9523 23.636 17.0808 24.8152C19.039 25.9007 20.6616 26.7906 20.6826 26.7906C20.7036 26.7906 21.0994 26.5013 21.5607 26.1487C22.2344 25.6307 22.3996 25.4957 22.3943 25.4461C22.3917 25.4158 22.2606 24.5948 22.1007 23.625C21.9435 22.6552 21.6394 20.8148 21.4297 19.5337C21.22 18.2526 21.0443 17.1836 21.0391 17.1588C21.0312 17.1285 21.8648 16.2606 23.6762 14.4037C25.131 12.9132 26.4417 11.5769 26.5859 11.4337L26.8507 11.1719L26.5282 10.125C26.3526 9.54919 26.1979 9.06705 26.1875 9.05603C26.177 9.04225 25.5609 8.94031 24.8217 8.83011C24.0799 8.71715 22.2842 8.44439 20.8268 8.22399C19.2015 7.97878 18.1687 7.81072 18.1503 7.78868C18.1346 7.77215 17.322 6.04745 16.3442 3.95909L14.5669 0.165312H13.5027L12.4384 0.168068L10.6506 3.98939ZM15.1908 6.03368C16.1083 7.99531 16.8737 9.61531 16.8895 9.63184C16.9078 9.65113 17.6287 9.7696 18.4937 9.90184C21.123 10.2958 24.2555 10.7697 24.3472 10.7862C24.3944 10.7973 24.4311 10.8138 24.4259 10.8248C24.4206 10.8386 23.262 12.0288 21.8491 13.4725C20.4362 14.9161 19.212 16.1669 19.1255 16.2551L18.9734 16.4121L19.136 17.4012C19.2225 17.944 19.3195 18.5198 19.3457 18.6796C19.3955 18.9551 19.4768 19.4538 20.0272 22.8067C20.1609 23.614 20.2632 24.2807 20.2579 24.2862C20.2501 24.2945 18.7428 23.468 16.9052 22.4513C15.0676 21.4319 13.5472 20.5944 13.5236 20.5889C13.4791 20.5751 11.6441 21.578 11.4265 21.7323C11.2824 21.8369 6.7605 24.3331 6.7474 24.3193C6.73953 24.3138 6.9073 23.2668 7.11439 21.9967C7.3241 20.7266 7.53643 19.4373 7.58623 19.1342C7.63604 18.8311 7.75662 18.0955 7.85361 17.5004L8.03187 16.4177L7.80905 16.189C7.46565 15.8336 2.97263 11.2491 2.75243 11.0287C2.64496 10.9212 2.56107 10.8276 2.56894 10.8193C2.5768 10.811 2.79438 10.7725 3.05389 10.7311C3.51001 10.6623 7.80381 10.012 9.34517 9.77786C9.76459 9.7145 10.1132 9.65664 10.1211 9.64562C10.1316 9.63735 10.8603 8.08623 11.7437 6.19899C13.5839 2.2647 13.5 2.44378 13.5105 2.4548C13.5158 2.46031 14.2707 4.07205 15.1908 6.03368Z" fill="#540062"/>
<path d="M7.97942 11.8938C7.98466 11.9213 8.29398 13.2768 8.66359 14.9051C9.03321 16.5334 9.34515 17.8751 9.35301 17.8834C9.3635 17.8944 9.6833 17.9054 10.066 17.9109L10.7607 17.9219L11.4606 14.9051C11.8459 13.2465 12.1631 11.88 12.1631 11.8662C12.1631 11.8552 11.9193 11.8497 11.6205 11.8524L11.0779 11.8607L10.6296 14.1254C10.3858 15.3735 10.1787 16.3929 10.1709 16.3929C10.163 16.3929 9.96379 15.3735 9.72524 14.1254L9.29272 11.8607L8.62952 11.8524C8.00563 11.8469 7.96631 11.8497 7.97942 11.8938Z" fill="#540062"/>
<path d="M12.7661 14.8638V17.8806H13.3952H14.0243V14.8638V11.8469H13.3952H12.7661V14.8638Z" fill="#540062"/>
<path d="M15.2825 14.861V17.8806H15.9117H16.5408V16.7813V15.6848L17.0467 15.6655C17.9196 15.6325 18.3023 15.5112 18.6064 15.1696C18.782 14.9712 18.9262 14.693 18.997 14.4092C19.0337 14.2714 19.0442 14.1199 19.0442 13.7617C19.0442 13.219 19.0153 13.0675 18.8423 12.7065C18.6457 12.2905 18.3521 12.0481 17.9013 11.9268C17.6968 11.8717 17.6024 11.8662 16.4831 11.8552L15.2825 11.8414V14.861ZM17.3718 12.9159C17.5159 12.9958 17.626 13.1418 17.6811 13.3264C17.7178 13.4449 17.723 13.5441 17.7152 13.7976C17.702 14.1695 17.6549 14.3155 17.5028 14.456C17.3718 14.5745 17.2643 14.6048 16.8763 14.6213L16.5408 14.6379V13.7342V12.8333L16.9025 12.8443C17.2066 12.8526 17.2774 12.8636 17.3718 12.9159Z" fill="#540062"/>
</svg>
